<svg xmlns="http://www.w3.org/2000/svg" width="132.999" height="136" viewBox="0 0 132.999 136">
  <g id="bell" transform="translate(-293 -704)">
    <g id="Subtraction_3" data-name="Subtraction 3" transform="translate(5903 -2500.116)" fill="none">
      <path d="M-5544,3340.116a19.961,19.961,0,0,1-9.341-2.359,26.668,26.668,0,0,1-7.927-6.516,38.057,38.057,0,0,1-5.918-9.828,48.768,48.768,0,0,1-3.315-12.3h53a48.773,48.773,0,0,1-3.315,12.3,38.057,38.057,0,0,1-5.918,9.828,26.668,26.668,0,0,1-7.927,6.516A19.961,19.961,0,0,1-5544,3340.116Z" stroke="none"/>
      <path d="M -5543.99951171875 3330.116455078125 C -5542.39892578125 3330.116455078125 -5540.8623046875 3329.718505859375 -5539.3017578125 3328.900390625 C -5537.56640625 3327.990966796875 -5535.90771484375 3326.607177734375 -5534.37109375 3324.7880859375 C -5532.99853515625 3323.1630859375 -5531.78271484375 3321.2607421875 -5530.7451171875 3319.11669921875 L -5557.25341796875 3319.11669921875 C -5556.21630859375 3321.260986328125 -5555.0009765625 3323.1630859375 -5553.62841796875 3324.78759765625 C -5552.09130859375 3326.607177734375 -5550.4326171875 3327.990966796875 -5548.6982421875 3328.900146484375 C -5547.13671875 3329.718505859375 -5545.60009765625 3330.116455078125 -5543.99951171875 3330.116455078125 M -5543.99951171875 3340.116455078125 C -5547.2119140625 3340.116455078125 -5550.3544921875 3339.322509765625 -5553.3408203125 3337.757080078125 C -5556.2265625 3336.244140625 -5558.89306640625 3334.0517578125 -5561.267578125 3331.240966796875 C -5563.62255859375 3328.452880859375 -5565.61376953125 3325.146240234375 -5567.185546875 3321.412841796875 C -5568.7890625 3317.60302734375 -5569.904296875 3313.466064453125 -5570.50048828125 3309.11669921875 L -5517.49853515625 3309.11669921875 C -5518.09521484375 3313.4677734375 -5519.21044921875 3317.6044921875 -5520.8134765625 3321.412841796875 C -5522.38525390625 3325.146240234375 -5524.37646484375 3328.452880859375 -5526.7314453125 3331.240966796875 C -5529.10595703125 3334.0517578125 -5531.7724609375 3336.244140625 -5534.658203125 3337.757080078125 C -5537.64453125 3339.322509765625 -5540.787109375 3340.116455078125 -5543.99951171875 3340.116455078125 Z" stroke="none" fill="#fff"/>
    </g>
    <g id="Union_10" data-name="Union 10" transform="translate(293 704)" fill="none">
      <path d="M20,115A20,20,0,0,1,0,95v-.116A20,20,0,0,1,17.607,75.025a50.119,50.119,0,0,1-.983-9.9V49.874a49.875,49.875,0,0,1,99.75,0v15.25a50.119,50.119,0,0,1-.983,9.9A20,20,0,0,1,133,94.883V95a20,20,0,0,1-20,20Z" stroke="none"/>
      <path d="M 112.9995193481445 105.0002059936523 C 118.5134124755859 105.0002059936523 122.9993057250977 100.513916015625 122.9993057250977 94.88339233398438 C 122.9993057250977 89.82073211669922 119.2199401855469 85.55244445800781 114.2081756591797 84.95497131347656 L 103.4499359130859 83.67244720458984 L 105.5886993408203 73.05123138427734 C 106.1101226806641 70.46176147460938 106.3745193481445 67.79494476318359 106.3745193481445 65.12489318847656 L 106.3745193481445 49.87439346313477 C 106.3745193481445 27.88757705688477 88.4869384765625 9.999998092651367 66.50009918212891 9.999998092651367 C 44.51277923583984 9.999998092651367 26.62480735778809 27.88757705688477 26.62480735778809 49.87439346313477 L 26.62480735778809 65.12489318847656 C 26.62480735778809 67.79502105712891 26.88917541503906 70.46183776855469 27.41059684753418 73.05123138427734 L 29.54936027526855 83.67244720458984 L 18.79112243652344 84.95497131347656 C 13.77935981750488 85.55244445800781 9.999991416931152 89.82073211669922 9.999991416931152 94.99949645996094 C 9.999991416931152 100.513916015625 14.48588562011719 105.0002059936523 19.99980735778809 105.0002059936523 L 112.9995193481445 105.0002059936523 M 112.9995193481445 115.0002059936523 L 19.99980735778809 115.0002059936523 C 8.954096794128418 115.0002059936523 -8.846885066304822e-06 106.0452117919922 -8.846885066304822e-06 94.99949645996094 L -8.846885066304822e-06 94.88339233398438 C -8.846885066304822e-06 84.64739227294922 7.689701557159424 76.20760345458984 17.60738563537598 75.02528381347656 C 16.96309661865234 71.82570648193359 16.62480735778809 68.51428985595703 16.62480735778809 65.12489318847656 L 16.62480735778809 49.87439346313477 C 16.62480735778809 22.32989311218262 38.9547004699707 -2.266331648570485e-06 66.50009918212891 -2.266331648570485e-06 C 94.04459381103516 -2.266331648570485e-06 116.3745193481445 22.32989311218262 116.3745193481445 49.87439346313477 L 116.3745193481445 65.12489318847656 C 116.3745193481445 68.51428985595703 116.0362014770508 71.82570648193359 115.3919143676758 75.02528381347656 C 125.3095932006836 76.20760345458984 132.9993133544922 84.64739227294922 132.9993133544922 94.88339233398438 L 132.9993133544922 94.99949645996094 C 132.9993133544922 106.0452117919922 124.0452041625977 115.0002059936523 112.9995193481445 115.0002059936523 Z" stroke="none" fill="#fff"/>
    </g>
  </g>
</svg>
