<svg xmlns="http://www.w3.org/2000/svg" width="141.001" height="129.937" viewBox="0 0 141.001 129.937">
  <g id="heart-filled" fill="#e52b38">
    <path d="M 70.07184600830078 119.2526779174805 L 21.1386890411377 69.56227874755859 C 12.21313858032227 62.46700286865234 7.50001335144043 52.70990371704102 7.50001335144043 42.15972900390625 C 7.50001335144043 23.53225326538086 22.37516403198242 8.377677917480469 40.65921401977539 8.377677917480469 C 49.68381500244141 8.377677917480469 58.11963653564453 12.00525283813477 64.41271209716797 18.59215354919434 L 69.77206420898438 24.20172882080078 L 70.12207794189453 23.84390258789063 L 70.34881591796875 24.07100296020508 L 75.90589141845703 18.4571533203125 C 82.17498779296875 11.493727684021 91.08283996582031 7.500002861022949 100.3453903198242 7.500002861022949 C 118.62744140625 7.500002861022949 133.5009918212891 22.6545524597168 133.5009918212891 41.28202819824219 C 133.5009918212891 51.83292770385742 128.7930908203125 61.58655166625977 120.5844345092773 68.04195404052734 L 70.07184600830078 119.2526779174805 Z" stroke="none"/>
    <path d="M 70.06813812255859 108.559928894043 L 114.5335540771484 63.41182708740234 L 115.2007904052734 62.73435974121094 L 115.9482574462891 62.14656066894531 C 122.3369216918945 57.12242889404297 126.0009918212891 49.51759338378906 126.0009918212891 41.28202819824219 C 126.0009918212891 26.79006195068359 114.4919204711914 14.9999942779541 100.3453903198242 14.9999942779541 C 93.10012054443359 14.9999942779541 86.40018463134766 18.00989532470703 81.47982025146484 23.47526168823242 L 70.62995147705078 34.96809387207031 L 70.17628479003906 34.51367568969727 L 69.70835113525391 34.99202728271484 L 58.9898567199707 23.77312850952148 C 54.12552261352539 18.68169403076172 47.61555480957031 15.87769412994385 40.65922164916992 15.87769412994385 C 26.51068878173828 15.87769412994385 14.9999885559082 27.66776084899902 14.9999885559082 42.15972900390625 C 14.9999885559082 50.39449310302734 18.66925430297852 58.00276184082031 25.06692123413086 63.03369522094727 L 25.81488800048828 63.62189483642578 L 26.4825553894043 64.29985809326172 L 70.06813812255859 108.559928894043 M 70.06748962402344 129.937255859375 L 15.79482173919678 74.82472991943359 C 6.192554950714111 67.27379608154297 -1.171875010186341e-05 55.4496955871582 -1.171875010186341e-05 42.15972900390625 C -1.171875010186341e-05 19.36179542541504 18.20442199707031 0.8776946067810059 40.65922164916992 0.8776946067810059 C 52.10945510864258 0.8776946067810059 62.45088958740234 5.681694507598877 69.83558654785156 13.41116142272949 L 70.06748962402344 13.17409420013428 L 70.33198547363281 13.43902778625488 C 77.76738739013672 5.180094718933105 88.46031951904297 -5.403645900514675e-06 100.3453903198242 -5.403645900514675e-06 C 122.8001861572266 -5.403645900514675e-06 141.0009918212891 18.48409461975098 141.0009918212891 41.28202819824219 C 141.0009918212891 54.56645965576172 134.8229217529297 66.38599395751953 125.2206573486328 73.93732452392578 L 70.06748962402344 129.937255859375 Z" stroke="none" fill="#e52b38"/>
  </g>
</svg>
