<svg xmlns="http://www.w3.org/2000/svg" width="141.001" height="129.937" viewBox="0 0 141.001 129.937">
  <g id="heart-empty" fill="none">
    <path d="M15.795,74.825A41.456,41.456,0,0,1,0,42.16C0,19.362,18.2.878,40.659.878A40.228,40.228,0,0,1,69.836,13.411l.232-.237.265.265A40.273,40.273,0,0,1,100.345,0C122.8,0,141,18.484,141,41.282a41.433,41.433,0,0,1-15.78,32.655l-55.153,56Z" stroke="none"/>
    <path d="M 70.06790161132813 115.6857376098633 L 118.0959320068359 66.92031860351563 L 118.5407638549805 66.46865844726563 L 119.0390472412109 66.07679748535156 C 126.6410446166992 60.09851837158203 131.0009918212891 51.06118392944336 131.0009918212891 41.28204345703125 C 131.0009918212891 24.03307151794434 117.2489318847656 10.0000171661377 100.3453750610352 10.0000171661377 C 91.79026794433594 10.0000171661377 83.55960083007813 13.69221115112305 77.76384735107422 20.12985038757324 L 70.44268035888672 27.70315551757813 L 70.14025115966797 27.40024566650391 L 69.75070953369141 27.7984619140625 L 62.60504531860352 20.31912803649902 C 56.78826522827148 14.23071098327637 48.99440383911133 10.87768363952637 40.65921020507813 10.87768363952637 C 23.75368309020996 10.87768363952637 10.00001621246338 24.9107666015625 10.00001621246338 42.15974044799805 C 10.00001621246338 51.93812942504883 14.36515522003174 60.97896194458008 21.97618293762207 66.96401977539063 L 22.47484970092773 67.35615539550781 L 22.9199333190918 67.80815887451172 L 70.06790161132813 115.6857376098633 M 70.06748962402344 129.9372711181641 L 15.7947940826416 74.82471466064453 C 6.192543983459473 67.27379608154297 1.605902798473835e-05 55.44971084594727 1.605902798473835e-05 42.15974044799805 C 1.605902798473835e-05 19.36179542541504 18.20443344116211 0.8776834607124329 40.65921020507813 0.8776834607124329 C 52.10945892333984 0.8776834607124329 62.45090484619141 5.681683540344238 69.8355712890625 13.41118335723877 L 70.06748962402344 13.17409992218018 L 70.33198547363281 13.43901634216309 C 77.76740264892578 5.180099964141846 88.46031951904297 1.681857611401938e-05 100.3453750610352 1.681857611401938e-05 C 122.8001861572266 1.681857611401938e-05 141.0009918212891 18.48410034179688 141.0009918212891 41.28204345703125 C 141.0009918212891 54.56643295288086 134.8229370117188 66.385986328125 125.2206573486328 73.93732452392578 L 70.06748962402344 129.9372711181641 Z" stroke="none" fill="#707070"/>
  </g>
</svg>
