<svg xmlns="http://www.w3.org/2000/svg" width="147" height="147" viewBox="0 0 147 147">
  <g id="profile" transform="translate(-713 -421)">
    <g id="Ellipse_2" data-name="Ellipse 2" transform="translate(713 421)" fill="none" stroke="#707070" stroke-width="10">
      <circle cx="73.5" cy="73.5" r="73.5" stroke="none"/>
      <circle cx="73.5" cy="73.5" r="68.5" fill="none"/>
    </g>
    <g id="Intersection_1" data-name="Intersection 1" transform="translate(736.866 456.269)" fill="#707070">
      <path d="M 49.61354064941406 106.6897506713867 C 40.89678192138672 106.6897506713867 32.40732192993164 105.0757141113281 24.3809814453125 101.8924331665039 C 17.43350791931152 99.13705444335938 11.03799819946289 95.29386138916016 5.335714340209961 90.45143127441406 C 6.678463459014893 82.73189544677734 9.963780403137207 75.47687530517578 14.91910171508789 69.33370971679688 C 20.34522247314453 62.60687255859375 27.49552154541016 57.53687286376953 35.59702301025391 54.67177200317383 L 44.20162200927734 51.6287727355957 L 37.00516128540039 46.0153923034668 C 34.31078338623047 43.91371154785156 32.0826416015625 41.19309234619141 30.56166076660156 38.14765167236328 C 28.96884155273438 34.95841217041016 28.16122245788574 31.51835060119629 28.16122245788574 27.92307090759277 C 28.16122245788574 24.82623100280762 28.7666015625 21.82469177246094 29.96054077148438 19.00177192687988 C 31.11478233337402 16.2727108001709 32.76822280883789 13.82069110870361 34.87494277954102 11.71385192871094 C 36.98158264160156 9.607051849365234 39.43334197998047 7.953551292419434 42.16208267211914 6.799271583557129 C 44.98450088500977 5.605371475219727 47.98548126220703 5.000011444091797 51.08164215087891 5.000011444091797 C 54.17850112915039 5.000011444091797 57.1800422668457 5.605391502380371 60.00292205810547 6.799351692199707 C 62.73198318481445 7.953631401062012 65.18398284912109 9.607151985168457 67.29077911376953 11.71395111083984 C 69.39759826660156 13.82077121734619 71.05110168457031 16.27277183532715 72.20538330078125 19.0018310546875 C 73.39934539794922 21.82469177246094 74.00472259521484 24.82623100280762 74.00472259521484 27.92307090759277 C 74.00472259521484 31.51849174499512 73.19704437255859 34.95843124389648 71.60411834716797 38.14733123779297 C 70.08286285400391 41.19279098510742 67.85414123535156 43.91331100463867 65.15890502929688 46.01479339599609 L 57.95914077758789 51.62847137451172 L 66.56655883789063 54.67187118530273 C 74.31021881103516 57.40987014770508 81.22292327880859 62.19119262695313 86.55736541748047 68.49895477294922 C 91.38661193847656 74.20932769775391 94.75589752197266 80.9852294921875 96.38684844970703 88.22617340087891 C 93.79808807373047 90.64749908447266 91.01828765869141 92.87299346923828 88.09612274169922 94.86219024658203 C 84.42240142822266 97.36301422119141 80.49269866943359 99.51115417480469 76.41618347167969 101.2468948364258 C 67.93412017822266 104.858512878418 58.91641998291016 106.6897506713867 49.61354064941406 106.6897506713867 Z" stroke="none"/>
      <path d="M 49.61354064941406 101.6897506713867 C 64.88143920898438 101.6897506713867 79.30805969238281 96.34518432617188 90.780517578125 86.53736114501953 C 87.02433013916016 73.98919677734375 77.46465301513672 63.82854843139648 64.8997802734375 59.38589477539063 L 51.08022689819336 54.49959564208984 L 37.26408767700195 59.38568115234375 C 24.12155151367188 64.03353118896484 14.18304061889648 75.15818023681641 10.85996055603027 88.49156188964844 C 21.92907524108887 97.03681182861328 35.4992790222168 101.6897506713867 49.61354064941406 101.6897506713867 M 51.07940292358398 50.65239715576172 L 62.08446884155273 42.07170486450195 C 66.48237609863281 38.64265823364258 69.00470733642578 33.48565673828125 69.00470733642578 27.92306137084961 C 69.00470733642578 18.04025268554688 60.96444702148438 10.00001430511475 51.08163452148438 10.00001430511475 C 41.20027923583984 10.00001430511475 33.16120910644531 18.04025268554688 33.16120910644531 27.92306137084961 C 33.16120910644531 33.4855842590332 35.68313598632813 38.64301300048828 40.08037567138672 42.07291793823242 L 51.07940292358398 50.65239715576172 M 49.61354064941406 111.6897506713867 C 30.4898738861084 111.6897506713867 13.07265949249268 104.3839874267578 -6.910051524755545e-06 92.4110107421875 C 2.3119215965271 72.68737030029297 15.78446960449219 56.37501525878906 33.92994689941406 49.95787048339844 C 27.37770652770996 44.84698867797852 23.16120719909668 36.87718200683594 23.16120719909668 27.92306137084961 C 23.16120719909668 12.50144290924072 35.66259002685547 1.43781389851938e-05 51.08163452148438 1.43781389851938e-05 C 66.50334930419922 1.43781389851938e-05 79.00470733642578 12.50144290924072 79.00470733642578 27.92306137084961 C 79.00470733642578 36.87718200683594 74.78823089599609 44.84698867797852 68.23332977294922 49.95787048339844 C 85.61318206787109 56.1030158996582 98.70516204833984 71.32358551025391 101.8128509521484 89.92441558837891 C 88.49684906005859 103.3648223876953 70.02763366699219 111.6897506713867 49.61354064941406 111.6897506713867 Z" stroke="none" fill="#707070"/>
    </g>
  </g>
</svg>
