<svg xmlns="http://www.w3.org/2000/svg" width="141.001" height="71.423" viewBox="0 0 141.001 71.423">
  <g id="view" transform="translate(-100 -745)">
    <g id="Intersection_5" data-name="Intersection 5" transform="translate(100 745)" fill="none" stroke-linecap="round">
      <path d="M0,35.711a87.446,87.446,0,0,1,141,0A87.305,87.305,0,0,1,70.5,71.423,87.3,87.3,0,0,1,0,35.711Z" stroke="none"/>
      <path d="M 70.49945831298828 9.999988555908203 C 48.50968170166016 9.999988555908203 27.48541259765625 19.49097442626953 12.88029479980469 35.71141815185547 C 27.48532867431641 51.93199920654297 48.50962829589844 61.42309951782227 70.49945831298828 61.42309951782227 C 92.49028778076172 61.42309951782227 113.515251159668 51.93204498291016 128.1205749511719 35.71142196655273 C 113.5151672363281 19.49095153808594 92.49021148681641 9.999988555908203 70.49945831298828 9.999988555908203 M 70.49945831298828 -1.52587890625e-05 C 99.435791015625 -1.52587890625e-05 125.0870742797852 14.05448913574219 141.0009613037109 35.71137619018555 C 125.0870742797852 57.36859893798828 99.435791015625 71.42310333251953 70.49945831298828 71.42310333251953 C 41.56446075439453 71.42310333251953 15.91368103027344 57.36859893798828 -1.52587890625e-05 35.71137619018555 C 15.91368103027344 14.05448913574219 41.56446075439453 -1.52587890625e-05 70.49945831298828 -1.52587890625e-05 Z" stroke="none" fill="#707070"/>
    </g>
    <path id="Subtraction_1" data-name="Subtraction 1" d="M23.4,46.795a23.4,23.4,0,1,1,23.4-23.4A23.424,23.424,0,0,1,23.4,46.795ZM14.778,4.925a9.852,9.852,0,1,0,9.85,9.853A9.864,9.864,0,0,0,14.778,4.925Z" transform="translate(147.103 757.314)" fill="#707070"/>
  </g>
</svg>
